# xmcd
#
# Track frame offsets:
#	150
#	17790
#	33670
#	51792
#	70080
#	89591
#	108675
#	126179
#	144802
#	163632
#	181053
#	199046
#
# Disc length: 2906 seconds
#
# Revision: 0
# Processed by: cddbd v1.5.2PL0 Copyright (c) Steve Scherf et al.
# Submitted via: EasyCDDAExtractor 15.3.0.1
#
DISCID=a30b580c
DTITLE=Alex Ubago - Canciones Impuntuales
DYEAR=2017
DGENRE=Latin
TTITLE0=Miranos
TTITLE1=Bailar En El Alambre
TTITLE2=Tu Que Ya No Estas
TTITLE3=Y Ahora
TTITLE4=Entre Tu Boca Y La Mia
TTITLE5=Cuenta Conmigo (Featuring Luis Fonsi)
TTITLE6=Ni Tu Ni Yo
TTITLE7=Dueña De Mi Soledad
TTITLE8=Antes De Que Te Vayas
TTITLE9=Sigue Pasando
TTITLE10=Aquel Abril
TTITLE11=Cuenta Conmigo
EXTD=
EXTT0=
EXTT1=
EXTT2=
EXTT3=
EXTT4=
EXTT5=
EXTT6=
EXTT7=
EXTT8=
EXTT9=
EXTT10=
EXTT11=
PLAYORDER=
